{
  "accessors": [
    {
      "bufferView": 2,
      "componentType": 5126,
      "count": 8123,
      "max": [
        0.49962741136550903,
        0.49996453523635864,
        0.21416650712490082
      ],
      "min": [
        -0.5,
        -0.5,
        -0.21416650712490082
      ],
      "type": "VEC3"
    },
    {
      "bufferView": 2,
      "byteOffset": 97476,
      "componentType": 5126,
      "count": 8123,
      "max": [
        1.0,
        0.9987239837646484,
        0.9999988079071045
      ],
      "min": [
        -1.0,
        -0.9889276623725891,
        -0.9999987483024597
      ],
      "type": "VEC3"
    },
    {
      "bufferView": 1,
      "componentType": 5126,
      "count": 8123,
      "max": [
        0.9997954368591309,
        0.9998029470443726
      ],
      "min": [
        0.00019073206931352615,
        0.359372615814209
      ],
      "type": "VEC2"
    },
    {
      "bufferView": 1,
      "byteOffset": 64984,
      "componentType": 5126,
      "count": 8123,
      "max": [
        0.9997954368591309,
        0.9998029470443726
      ],
      "min": [
        0.00019073206931352615,
        0.359372615814209
      ],
      "type": "VEC2"
    },
    {
      "bufferView": 1,
      "byteOffset": 129968,
      "componentType": 5126,
      "count": 8123,
      "max": [
        0.9997954368591309,
        0.9998029470443726
      ],
      "min": [
        0.00019073206931352615,
        0.359372615814209
      ],
      "type": "VEC2"
    },
    {
      "bufferView": 1,
      "byteOffset": 194952,
      "componentType": 5126,
      "count": 8123,
      "max": [
        0.9997954368591309,
        0.9998029470443726
      ],
      "min": [
        0.00019073206931352615,
        0.359372615814209
      ],
      "type": "VEC2"
    },
    {
      "bufferView": 1,
      "byteOffset": 259936,
      "componentType": 5126,
      "count": 8123,
      "max": [
        0.9997954368591309,
        0.9998029470443726
      ],
      "min": [
        0.00019073206931352615,
        0.359372615814209
      ],
      "type": "VEC2"
    },
    {
      "bufferView": 1,
      "byteOffset": 324920,
      "componentType": 5126,
      "count": 8123,
      "max": [
        0.9997954368591309,
        0.9998029470443726
      ],
      "min": [
        0.00019073206931352615,
        0.359372615814209
      ],
      "type": "VEC2"
    },
    {
      "bufferView": 1,
      "byteOffset": 389904,
      "componentType": 5126,
      "count": 8123,
      "max": [
        0.9997954368591309,
        0.9998029470443726
      ],
      "min": [
        0.00019073206931352615,
        0.359372615814209
      ],
      "type": "VEC2"
    },
    {
      "bufferView": 1,
      "byteOffset": 454888,
      "componentType": 5126,
      "count": 8123,
      "max": [
        0.9997954368591309,
        0.9998029470443726
      ],
      "min": [
        0.00019073206931352615,
        0.359372615814209
      ],
      "type": "VEC2"
    },
    {
      "bufferView": 1,
      "byteOffset": 519872,
      "componentType": 5126,
      "count": 8123,
      "max": [
        0.9997954368591309,
        0.9998029470443726
      ],
      "min": [
        0.00019073206931352615,
        0.359372615814209
      ],
      "type": "VEC2"
    },
    {
      "bufferView": 0,
      "componentType": 5125,
      "count": 47304,
      "type": "SCALAR"
    },
    {
      "bufferView": 2,
      "byteOffset": 194952,
      "componentType": 5126,
      "count": 8217,
      "max": [
        0.5,
        0.4994174540042877,
        0.21195131540298462
      ],
      "min": [
        -0.5,
        -0.4999999701976776,
        -0.21195131540298462
      ],
      "type": "VEC3"
    },
    {
      "bufferView": 2,
      "byteOffset": 293556,
      "componentType": 5126,
      "count": 8217,
      "max": [
        0.9996151924133301,
        0.9918220043182373,
        0.999999463558197
      ],
      "min": [
        -1.0,
        -0.9884470701217651,
        -0.999999463558197
      ],
      "type": "VEC3"
    },
    {
      "bufferView": 1,
      "byteOffset": 584856,
      "componentType": 5126,
      "count": 8217,
      "max": [
        0.9998258948326111,
        0.9998425841331482
      ],
      "min": [
        0.00016105175018310547,
        0.3346351385116577
      ],
      "type": "VEC2"
    },
    {
      "bufferView": 1,
      "byteOffset": 650592,
      "componentType": 5126,
      "count": 8217,
      "max": [
        0.9998258948326111,
        0.9998425841331482
      ],
      "min": [
        0.00016105175018310547,
        0.3346351385116577
      ],
      "type": "VEC2"
    },
    {
      "bufferView": 1,
      "byteOffset": 716328,
      "componentType": 5126,
      "count": 8217,
      "max": [
        0.9998258948326111,
        0.9998425841331482
      ],
      "min": [
        0.00016105175018310547,
        0.3346351385116577
      ],
      "type": "VEC2"
    },
    {
      "bufferView": 1,
      "byteOffset": 782064,
      "componentType": 5126,
      "count": 8217,
      "max": [
        0.9998258948326111,
        0.9998425841331482
      ],
      "min": [
        0.00016105175018310547,
        0.3346351385116577
      ],
      "type": "VEC2"
    },
    {
      "bufferView": 1,
      "byteOffset": 847800,
      "componentType": 5126,
      "count": 8217,
      "max": [
        0.9998258948326111,
        0.9998425841331482
      ],
      "min": [
        0.00016105175018310547,
        0.3346351385116577
      ],
      "type": "VEC2"
    },
    {
      "bufferView": 1,
      "byteOffset": 913536,
      "componentType": 5126,
      "count": 8217,
      "max": [
        0.9998258948326111,
        0.9998425841331482
      ],
      "min": [
        0.00016105175018310547,
        0.3346351385116577
      ],
      "type": "VEC2"
    },
    {
      "bufferView": 1,
      "byteOffset": 979272,
      "componentType": 5126,
      "count": 8217,
      "max": [
        0.9998258948326111,
        0.9998425841331482
      ],
      "min": [
        0.00016105175018310547,
        0.3346351385116577
      ],
      "type": "VEC2"
    },
    {
      "bufferView": 1,
      "byteOffset": 1045008,
      "componentType": 5126,
      "count": 8217,
      "max": [
        0.9998258948326111,
        0.9998425841331482
      ],
      "min": [
        0.00016105175018310547,
        0.3346351385116577
      ],
      "type": "VEC2"
    },
    {
      "bufferView": 1,
      "byteOffset": 1110744,
      "componentType": 5126,
      "count": 8217,
      "max": [
        0.9998258948326111,
        0.9998425841331482
      ],
      "min": [
        0.00016105175018310547,
        0.3346351385116577
      ],
      "type": "VEC2"
    },
    {
      "bufferView": 0,
      "byteOffset": 189216,
      "componentType": 5125,
      "count": 47838,
      "type": "SCALAR"
    },
    {
      "bufferView": 2,
      "byteOffset": 392160,
      "componentType": 5126,
      "count": 7845,
      "max": [
        0.49618247151374817,
        0.5,
        0.04068785533308983
      ],
      "min": [
        -0.4938153028488159,
        -0.4982798397541046,
        -0.04068785533308983
      ],
      "type": "VEC3"
    },
    {
      "bufferView": 2,
      "byteOffset": 486300,
      "componentType": 5126,
      "count": 7845,
      "max": [
        1.0,
        1.0,
        1.0
      ],
      "min": [
        -1.0,
        -1.0,
        -1.0
      ],
      "type": "VEC3"
    },
    {
      "bufferView": 1,
      "byteOffset": 1176480,
      "componentType": 5126,
      "count": 7845,
      "max": [
        0.9999654293060303,
        0.9999269843101501
      ],
      "min": [
        0.00015577948943246156,
        0.011069536209106445
      ],
      "type": "VEC2"
    },
    {
      "bufferView": 1,
      "byteOffset": 1239240,
      "componentType": 5126,
      "count": 7845,
      "max": [
        0.9999654293060303,
        0.9999269843101501
      ],
      "min": [
        0.00015577948943246156,
        0.011069536209106445
      ],
      "type": "VEC2"
    },
    {
      "bufferView": 1,
      "byteOffset": 1302000,
      "componentType": 5126,
      "count": 7845,
      "max": [
        0.9999654293060303,
        0.9999269843101501
      ],
      "min": [
        0.00015577948943246156,
        0.011069536209106445
      ],
      "type": "VEC2"
    },
    {
      "bufferView": 1,
      "byteOffset": 1364760,
      "componentType": 5126,
      "count": 7845,
      "max": [
        0.9999654293060303,
        0.9999269843101501
      ],
      "min": [
        0.00015577948943246156,
        0.011069536209106445
      ],
      "type": "VEC2"
    },
    {
      "bufferView": 1,
      "byteOffset": 1427520,
      "componentType": 5126,
      "count": 7845,
      "max": [
        0.9999654293060303,
        0.9999269843101501
      ],
      "min": [
        0.00015577948943246156,
        0.011069536209106445
      ],
      "type": "VEC2"
    },
    {
      "bufferView": 1,
      "byteOffset": 1490280,
      "componentType": 5126,
      "count": 7845,
      "max": [
        0.9999654293060303,
        0.9999269843101501
      ],
      "min": [
        0.00015577948943246156,
        0.011069536209106445
      ],
      "type": "VEC2"
    },
    {
      "bufferView": 1,
      "byteOffset": 1553040,
      "componentType": 5126,
      "count": 7845,
      "max": [
        0.9999654293060303,
        0.9999269843101501
      ],
      "min": [
        0.00015577948943246156,
        0.011069536209106445
      ],
      "type": "VEC2"
    },
    {
      "bufferView": 1,
      "byteOffset": 1615800,
      "componentType": 5126,
      "count": 7845,
      "max": [
        0.9999654293060303,
        0.9999269843101501
      ],
      "min": [
        0.00015577948943246156,
        0.011069536209106445
      ],
      "type": "VEC2"
    },
    {
      "bufferView": 1,
      "byteOffset": 1678560,
      "componentType": 5126,
      "count": 7845,
      "max": [
        0.9999654293060303,
        0.9999269843101501
      ],
      "min": [
        0.00015577948943246156,
        0.011069536209106445
      ],
      "type": "VEC2"
    },
    {
      "bufferView": 0,
      "byteOffset": 380568,
      "componentType": 5125,
      "count": 37890,
      "type": "SCALAR"
    }
  ],
  "asset": {
    "extras": {
      "author": "herusuwardianto (https://sketchfab.com/herusuwardianto)",
      "license": "CC-BY-4.0 (http://creativecommons.org/licenses/by/4.0/)",
      "source": "https://sketchfab.com/3d-models/anatomi-dan-fisiologi-paru-paru-781fe501162f4c3e931559127ad07792",
      "title": "Anatomi dan Fisiologi Paru-Paru"
    },
    "generator": "Sketchfab-12.68.0",
    "version": "2.0"
  },
  "bufferViews": [
    {
      "buffer": 0,
      "byteLength": 532128,
      "name": "floatBufferViews",
      "target": 34963
    },
    {
      "buffer": 0,
      "byteLength": 1741320,
      "byteOffset": 532128,
      "byteStride": 8,
      "name": "floatBufferViews",
      "target": 34962
    },
    {
      "buffer": 0,
      "byteLength": 580440,
      "byteOffset": 2273448,
      "byteStride": 12,
      "name": "floatBufferViews",
      "target": 34962
    }
  ],
  "buffers": [
    {
      "byteLength": 2853888,
      "uri": "scene.bin"
    }
  ],
  "images": [
    {
      "uri": "textures/Material_164_baseColor.png"
    },
    {
      "uri": "textures/Material_166_baseColor.png"
    },
    {
      "uri": "textures/Material_168_baseColor.png"
    }
  ],
  "materials": [
    {
      "doubleSided": true,
      "name": "Material_164",
      "pbrMetallicRoughness": {
        "baseColorTexture": {
          "index": 0
        },
        "metallicFactor": 0.0,
        "roughnessFactor": 0.9381616368038065
      }
    },
    {
      "doubleSided": true,
      "name": "Material_166",
      "pbrMetallicRoughness": {
        "baseColorTexture": {
          "index": 1
        },
        "metallicFactor": 0.0,
        "roughnessFactor": 0.9381616368038065
      }
    },
    {
      "doubleSided": true,
      "name": "Material_168",
      "pbrMetallicRoughness": {
        "baseColorTexture": {
          "index": 2
        },
        "metallicFactor": 0.0,
        "roughnessFactor": 0.9381616368038065
      }
    }
  ],
  "meshes": [
    {
      "name": "node_id66_Material_164_0",
      "primitives": [
        {
          "attributes": {
            "NORMAL": 1,
            "POSITION": 0,
            "TEXCOORD_0": 2,
            "TEXCOORD_1": 3,
            "TEXCOORD_2": 4,
            "TEXCOORD_3": 5,
            "TEXCOORD_4": 6,
            "TEXCOORD_5": 7,
            "TEXCOORD_6": 8,
            "TEXCOORD_7": 9,
            "TEXCOORD_8": 10
          },
          "indices": 11,
          "material": 0,
          "mode": 4
        }
      ]
    },
    {
      "name": "node_id66_Material_166_0",
      "primitives": [
        {
          "attributes": {
            "NORMAL": 13,
            "POSITION": 12,
            "TEXCOORD_0": 14,
            "TEXCOORD_1": 15,
            "TEXCOORD_2": 16,
            "TEXCOORD_3": 17,
            "TEXCOORD_4": 18,
            "TEXCOORD_5": 19,
            "TEXCOORD_6": 20,
            "TEXCOORD_7": 21,
            "TEXCOORD_8": 22
          },
          "indices": 23,
          "material": 1,
          "mode": 4
        }
      ]
    },
    {
      "name": "node_id66_Material_168_0",
      "primitives": [
        {
          "attributes": {
            "NORMAL": 25,
            "POSITION": 24,
            "TEXCOORD_0": 26,
            "TEXCOORD_1": 27,
            "TEXCOORD_2": 28,
            "TEXCOORD_3": 29,
            "TEXCOORD_4": 30,
            "TEXCOORD_5": 31,
            "TEXCOORD_6": 32,
            "TEXCOORD_7": 33,
            "TEXCOORD_8": 34
          },
          "indices": 35,
          "material": 2,
          "mode": 4
        }
      ]
    }
  ],
  "nodes": [
    {
      "children": [
        1
      ],
      "matrix": [
        1.0,
        0.0,
        0.0,
        0.0,
        0.0,
        2.220446049250313e-16,
        -1.0,
        0.0,
        0.0,
        1.0,
        2.220446049250313e-16,
        0.0,
        0.0,
        0.0,
        0.0,
        1.0
      ],
      "name": "Sketchfab_model"
    },
    {
      "children": [
        2
      ],
      "matrix": [
        1.0,
        0.0,
        0.0,
        0.0,
        0.0,
        0.0,
        1.0,
        0.0,
        0.0,
        -1.0,
        0.0,
        0.0,
        0.0,
        0.0,
        0.0,
        1.0
      ],
      "name": "45fa345ac45848feb416de633b2ff332.fbx"
    },
    {
      "children": [
        3
      ],
      "name": "RootNode"
    },
    {
      "children": [
        4
      ],
      "name": "root"
    },
    {
      "children": [
        5,
        7,
        10
      ],
      "matrix": [
        0.0009848324809659788,
        0.0,
        0.00017350748283189035,
        0.0,
        0.0,
        0.0010000000474974513,
        0.0,
        0.0,
        -0.00017350748283189035,
        0.0,
        0.0009848324809659788,
        0.0,
        0.03610377758741379,
        0.0,
        0.02280529960989952,
        1.0
      ],
      "name": "node_id66"
    },
    {
      "children": [
        6
      ],
      "matrix": [
        161.3708953857422,
        0.0,
        -14.8941011428833,
        0.0,
        0.0,
        331.74237060546875,
        0.0,
        0.0,
        15.244670682002878,
        0.0,
        165.16915886468493,
        0.0,
        -219.05929565429688,
        59.540916442871094,
        228.21109008789063,
        1.0
      ],
      "name": "Object_5"
    },
    {
      "mesh": 0,
      "name": "node_id66_Material_164_0"
    },
    {
      "children": [
        8
      ],
      "name": "node_id66"
    },
    {
      "children": [
        9
      ],
      "matrix": [
        160.90249633789063,
        0.0,
        -14.850866317749023,
        0.0,
        0.0,
        334.0595397949219,
        0.0,
        0.0,
        15.35115555737189,
        0.0,
        166.32290655665997,
        0.0,
        -5.471965312957764,
        62.973777770996094,
        189.17919921875,
        1.0
      ],
      "name": "Object_8"
    },
    {
      "mesh": 1,
      "name": "node_id66_Material_166_0"
    },
    {
      "children": [
        11
      ],
      "name": "node_id66"
    },
    {
      "children": [
        12
      ],
      "matrix": [
        343.268798828125,
        0.0,
        -63.098041534423835,
        0.0,
        0.0,
        313.8680114746094,
        0.0,
        0.0,
        31.549020767211918,
        0.0,
        171.6343994140625,
        0.0,
        -112.25435638427734,
        113.07988739013672,
        251.16949462890625,
        1.0
      ],
      "name": "Object_11"
    },
    {
      "mesh": 2,
      "name": "node_id66_Material_168_0"
    }
  ],
  "samplers": [
    {
      "magFilter": 9729,
      "minFilter": 9987,
      "wrapS": 10497,
      "wrapT": 10497
    }
  ],
  "scene": 0,
  "scenes": [
    {
      "name": "Sketchfab_Scene",
      "nodes": [
        0
      ]
    }
  ],
  "textures": [
    {
      "sampler": 0,
      "source": 0
    },
    {
      "sampler": 0,
      "source": 1
    },
    {
      "sampler": 0,
      "source": 2
    }
  ]
}
